IKResults
version=1
nRows=11
nColumns=63
inDegrees=yes

Units are S.I. units (second, meters, Newtons, ...)
If the header above contains a line with 'inDegrees', this indicates whether rotational values are in degrees (yes) or radians (no).

endheader
time	pelvis_tilt	pelvis_list	pelvis_rotation	pelvis_tx	pelvis_ty	pelvis_tz	hip_flexion_r	hip_adduction_r	hip_rotation_r	knee_angle_r	knee_angle_r_beta	ankle_angle_r	subtalar_angle_r	mtp_angle_r	hip_flexion_l	hip_adduction_l	hip_rotation_l	knee_angle_l	knee_angle_l_beta	ankle_angle_l	subtalar_angle_l	mtp_angle_l	L5_S1_Flex_Ext	L5_S1_Lat_Bending	L5_S1_axial_rotation	L4_L5_Flex_Ext	L4_L5_Lat_Bending	L4_L5_axial_rotation	L3_L4_Flex_Ext	L3_L4_Lat_Bending	L3_L4_axial_rotation	L2_L3_Flex_Ext	L2_L3_Lat_Bending	L2_L3_axial_rotation	L1_L2_Flex_Ext	L1_L2_Lat_Bending	L1_L2_axial_rotation	L1_T12_Flex_Ext	L1_T12_Lat_Bending	L1_T12_axial_rotation	Abs_r3	Abs_r2	Abs_r1	Abs_t1	Abs_t2	neck_flexion	neck_bending	neck_rotation	arm_flex_r	arm_add_r	arm_rot_r	elbow_flex_r	pro_sup_r	wrist_flex_r	wrist_dev_r	arm_flex_l	arm_add_l	arm_rot_l	elbow_flex_l	pro_sup_l	wrist_flex_l	wrist_dev_l
      4.03333333	      6.27349354	    116.58203006	   -129.17539769	     -0.44135364	      0.20746737	     -0.01582726	     32.12940039	      9.22675910	     12.56853168	      9.42306917	      0.16446358	      0.00000000	      0.00000000	      0.00000000	     31.34927195	    -19.60861134	    -36.80946881	     10.77539194	      0.18806607	      0.00000000	      0.00000000	      0.00000000	      4.79212311	     -0.52802113	     -2.13970016	      8.89945182	     -0.70226810	     -2.27343142	      7.87297905	     -1.28383057	     -2.27343142	      5.47691750	     -1.28383057	     -1.87223764	      4.44996552	     -1.07674068	     -1.73850638	      2.73821914	     -0.81790472	     -1.60477512	     34.22965614	     -5.97308058	    -11.90037039	      0.00000000	      0.00000000	     -9.74628749	     26.62830725	     44.80232935	     69.56988649	    -21.96688778	    147.63170465	      0.23147785	     89.99559364	      0.00000000	      0.00000000	    -89.74656959	    -42.60353206	   -139.75407424	     49.47579982	     89.99559364	      0.00000000	      0.00000000
      4.06666667	      6.09836961	    116.53331070	   -129.25926936	     -0.44196280	      0.20745391	     -0.01559009	     32.08742512	      9.31449205	     12.56448999	      9.41393907	      0.16430423	      0.00000000	      0.00000000	      0.00000000	     31.28015830	    -19.58213112	    -36.72972649	     10.78997789	      0.18832064	      0.00000000	      0.00000000	      0.00000000	      4.80703892	     -0.52670664	     -2.15602953	      8.92715198	     -0.70051983	     -2.29078137	      7.89748425	     -1.28063453	     -2.29078137	      5.49396478	     -1.28063453	     -1.88652584	      4.46381634	     -1.07406018	     -1.75177399	      2.74674204	     -0.81586859	     -1.61702215	     34.33619832	     -5.95821087	    -11.99118943	      0.00000000	      0.00000000	     -9.81951030	     26.57717204	     44.80590874	     69.55718421	    -21.58038302	    147.59804409	      0.23567485	     89.99559364	      0.00000000	      0.00000000	    -89.88763735	    -42.13179385	   -139.85864556	     49.47333453	     89.99559364	      0.00000000	      0.00000000
      4.10000000	      3.08715434	    116.27700550	   -128.14619630	     -0.44342772	      0.20854602	     -0.01539338	     32.95025815	      8.90029182	     12.47183961	      8.98861725	      0.15688097	      0.00000000	      0.00000000	      0.00000000	     30.96302712	    -18.93940624	    -36.31359373	     10.18482796	      0.17775878	      0.00000000	      0.00000000	      0.00000000	      4.95611805	     -0.59352270	     -1.86471881	      9.20400683	     -0.78938519	     -1.98126374	      8.14240634	     -1.44309108	     -1.98126374	      5.66434732	     -1.44309108	     -1.63162896	      4.60225122	     -1.21031148	     -1.51508403	      2.83192585	     -0.91936666	     -1.39853911	     35.40105561	     -6.71404745	    -10.37100662	      0.00000000	      0.00000000	    -10.13348283	     26.95790254	     44.80511716	     69.19181256	    -21.18006999	    146.61168042	      0.23265847	     89.99559364	      0.00000000	      0.00000000	    -90.84921644	    -41.65478892	   -139.86384748	     49.22704655	     89.99559364	      0.00000000	      0.00000000
      4.13333333	      3.00881737	    116.20563788	   -128.25136079	     -0.44370942	      0.20876692	     -0.01523286	     32.94685190	      8.94458576	     12.46621656	      8.98631452	      0.15684078	      0.00000000	      0.00000000	      0.00000000	     30.92289929	    -18.91536927	    -36.27869421	     10.21776862	      0.17833370	      0.00000000	      0.00000000	      0.00000000	      4.95391846	     -0.59276209	     -1.87673147	      9.19992197	     -0.78837357	     -1.99402718	      8.13879263	     -1.44124174	     -1.99402718	      5.66183340	     -1.44124174	     -1.64214003	      4.60020868	     -1.20876045	     -1.52484432	      2.83066901	     -0.91818847	     -1.40754860	     35.38534415	     -6.70544327	    -10.43781740	      0.00000000	      0.00000000	    -10.19551992	     26.95425651	     44.80638566	     69.22697897	    -20.89647471	    146.62007002	      0.23365200	     89.99559364	      0.00000000	      0.00000000	    -90.89086905	    -41.33799407	   -139.93962319	     49.18351024	     89.99559364	      0.00000000	      0.00000000
      4.16666667	      2.93371240	    116.12039955	   -128.34756904	     -0.44402018	      0.20899997	     -0.01507122	     32.93141674	      8.98386791	     12.46081268	      8.98443607	      0.15680799	      0.00000000	      0.00000000	      0.00000000	     30.86468730	    -18.90119826	    -36.23229269	     10.25564977	      0.17899486	      0.00000000	      0.00000000	      0.00000000	      4.94967864	     -0.59413704	     -1.88877808	      9.19204821	     -0.79020227	     -2.00682671	      8.13182705	     -1.44458480	     -2.00682671	      5.65698772	     -1.44458480	     -1.65268082	      4.59627159	     -1.21156426	     -1.53463219	      2.82824638	     -0.92031828	     -1.41658356	     35.35505959	     -6.72099705	    -10.50481704	      0.00000000	      0.00000000	    -10.26436412	     26.97848420	     44.80797582	     69.26425115	    -20.61827308	    146.62222145	      0.23367825	     89.99559364	      0.00000000	      0.00000000	    -90.97463572	    -41.02377931	   -139.98709361	     49.13428334	     89.99559364	      0.00000000	      0.00000000
      4.20000000	      2.88270572	    115.95130987	   -128.44190478	     -0.44479483	      0.20907386	     -0.01470202	     32.76681155	      9.02124970	     12.44061745	      8.97189001	      0.15658902	      0.00000000	      0.00000000	      0.00000000	     30.66060486	    -18.88771381	    -36.10374653	     10.34590547	      0.18057011	      0.00000000	      0.00000000	      0.00000000	      4.93904868	     -0.60823301	     -1.90111862	      9.17230730	     -0.80894990	     -2.01993853	      8.11436307	     -1.47885774	     -2.01993853	      5.64483873	     -1.47885774	     -1.66347879	      4.58640060	     -1.24030875	     -1.54465888	      2.82217241	     -0.94215293	     -1.42583896	     35.27913079	     -6.88045345	    -10.57345142	      0.00000000	      0.00000000	    -10.29671668	     27.12885837	     44.80689294	     69.20354548	    -20.31806984	    146.61882772	      0.23363351	     89.99559364	      0.00000000	      0.00000000	    -91.37401314	    -40.64011426	   -139.91449437	     49.01568996	     89.99559364	      0.00000000	      0.00000000
      4.23333333	      2.80967658	    115.86527801	   -128.49173051	     -0.44478174	      0.20945178	     -0.01465505	     32.78526210	      9.00732918	     12.43442574	      8.96878700	      0.15653486	      0.00000000	      0.00000000	      0.00000000	     30.59995497	    -18.85411829	    -36.07118241	     10.35504634	      0.18072965	      0.00000000	      0.00000000	      0.00000000	      4.92666473	     -0.61214735	     -1.90408875	      9.14930906	     -0.81415597	     -2.02309430	      8.09401748	     -1.48837507	     -2.02309430	      5.63068512	     -1.48837507	     -1.66607765	      4.57490087	     -1.24829087	     -1.54707211	      2.81509622	     -0.94821624	     -1.42806656	     35.19067348	     -6.92473324	    -10.58997039	      0.00000000	      0.00000000	    -10.35898961	     27.21947845	     44.80788569	     69.27260200	    -20.15236429	    146.60282691	      0.23429159	     89.99559364	      0.00000000	      0.00000000	    -91.40487760	    -40.45688771	   -139.97727479	     48.94008867	     89.99559364	      0.00000000	      0.00000000
      4.26666667	      2.77772910	    115.84039719	   -128.49948171	     -0.44469571	      0.20968656	     -0.01464403	     32.77583623	      9.01005049	     12.43217822	      8.96988065	      0.15655395	      0.00000000	      0.00000000	      0.00000000	     30.60769857	    -18.84884542	    -36.05746077	     10.35602083	      0.18074666	      0.00000000	      0.00000000	      0.00000000	      4.92096210	     -0.61358079	     -1.90545712	      9.13871872	     -0.81606245	     -2.02454819	      8.08464864	     -1.49186033	     -2.02454819	      5.62416759	     -1.49186033	     -1.66727498	      4.56960541	     -1.25121394	     -1.54818391	      2.81183774	     -0.95043664	     -1.42909284	     35.14994019	     -6.94094858	    -10.59758086	      0.00000000	      0.00000000	    -10.37449555	     27.24019673	     44.80710443	     69.29298318	    -20.10120666	    146.59653017	      0.23270282	     89.99559364	      0.00000000	      0.00000000	    -91.40016760	    -40.39864557	   -139.99252722	     48.91905241	     89.99559364	      0.00000000	      0.00000000
      4.30000000	      2.72396099	    115.80699261	   -128.48736530	     -0.44448519	      0.21016032	     -0.01464842	     32.78312219	      9.01525707	     12.42956882	      8.97090112	      0.15657176	      0.00000000	      0.00000000	      0.00000000	     30.59439440	    -18.85277487	    -36.04476117	     10.35533155	      0.18073463	      0.00000000	      0.00000000	      0.00000000	      4.91010283	     -0.61646929	     -1.91011032	      9.11855196	     -0.81990416	     -2.02949222	      8.06680793	     -1.49888344	     -2.02949222	      5.61175652	     -1.49888344	     -1.67134653	      4.55952149	     -1.25710418	     -1.55196464	      2.80563276	     -0.95491093	     -1.43258274	     35.07237348	     -6.97362393	    -10.62346057	      0.00000000	      0.00000000	    -10.40594853	     27.29113817	     44.80583109	     69.34638367	    -20.00926782	    146.58546291	      0.23085774	     89.99559364	      0.00000000	      0.00000000	    -91.36330849	    -40.32067318	   -140.01294581	     48.87806460	     89.99559364	      0.00000000	      0.00000000
      4.33333333	      2.68286951	    115.80353864	   -128.45215931	     -0.44421459	      0.21049225	     -0.01478686	     32.76179824	      9.02027443	     12.42699092	      8.97303003	      0.15660892	      0.00000000	      0.00000000	      0.00000000	     30.59234319	    -18.85195651	    -36.03493102	     10.35203774	      0.18067714	      0.00000000	      0.00000000	      0.00000000	      4.90308324	     -0.61749340	     -1.91283879	      9.10551589	     -0.82126622	     -2.03239122	      8.05527546	     -1.50137346	     -2.03239122	      5.60373384	     -1.50137346	     -1.67373394	      4.55300310	     -1.25919255	     -1.55418152	      2.80162176	     -0.95649728	     -1.43462909	     35.02223328	     -6.98520886	    -10.63863552	      0.00000000	      0.00000000	    -10.40553843	     27.32452685	     44.80871362	     69.41610332	    -19.98573318	    146.57556459	      0.23364471	     89.99559364	      0.00000000	      0.00000000	    -91.34339865	    -40.29386828	   -140.03408928	     48.86165447	     89.99559364	      0.00000000	      0.00000000
      4.36666667	      2.62030921	    115.78871841	   -128.36917447	     -0.44375417	      0.21105015	     -0.01489729	     32.75615988	      9.02485811	     12.42396274	      8.97417743	      0.15662894	      0.00000000	      0.00000000	      0.00000000	     30.59831756	    -18.85243990	    -36.03910199	     10.33546172	      0.18038784	      0.00000000	      0.00000000	      0.00000000	      4.89032189	     -0.62118846	     -1.91848972	      9.08181678	     -0.82618065	     -2.03839533	      8.03430983	     -1.51035762	     -2.03839533	      5.58914889	     -1.51035762	     -1.67867850	      4.54115291	     -1.26672751	     -1.55877290	      2.79432993	     -0.96222093	     -1.43886729	     34.93108023	     -7.02700810	    -10.67006427	      0.00000000	      0.00000000	    -10.38646175	     27.39262588	     44.80944715	     69.47976419	    -19.94945569	    146.55789479	      0.22745490	     89.99559364	      0.00000000	      0.00000000	    -91.25003809	    -40.30611860	   -140.05501306	     48.82840170	     89.99559364	      0.00000000	      0.00000000
